<?xml version="1.0" encoding="utf-8"?>
<!-- Generator: Adobe Illustrator 16.0.3, SVG Export Plug-In . SVG Version: 6.00 Build 0)  -->
<!DOCTYPE svg PUBLIC "-//W3C//DTD SVG 1.1//EN" "http://www.w3.org/Graphics/SVG/1.1/DTD/svg11.dtd">
<svg version="1.1" id="Layer_1" xmlns="http://www.w3.org/2000/svg" xmlns:xlink="http://www.w3.org/1999/xlink" x="0px" y="0px"
	 width="135px" height="50px" viewBox="0 0 135 50" enable-background="new 0 0 135 50" xml:space="preserve">
<g>
	<path fill="#060000" d="M2.163,47.782c2.917,0.731,5.954,0.85,8.918,0.349c6.424-1.008,14.15-5.822,16.769-16.952l4.901-19.826
		c0.045-0.188-0.07-0.376-0.258-0.421c-0.027-0.007-0.055-0.01-0.083-0.01h-7.434c0,0-2.384,9.199-2.824,10.886
		c-1.555,5.967-4.813,9.302-9.35,9.333c-3.025,0.019-4.167-2.307-3.212-6.636l3.188-13.158c0.043-0.184-0.071-0.368-0.255-0.41
		c-0.026-0.006-0.053-0.01-0.08-0.009H5.26c0,0-1.75,7.179-2.889,11.509c-2.108,8.018,0.265,14.288,7.301,14.77
		c3.79,0.261,7.086-1.585,9.588-3.993l0.124,0.013c-1.445,4.859-3.886,7.555-8.685,8.467c-2.171,0.343-4.395,0.011-6.373-0.946
		c-0.142-0.078-0.319-0.026-0.397,0.117c-0.012,0.021-0.02,0.041-0.026,0.064l-1.737,6.861"/>
	<path fill="#060000" d="M133.032,29.009h-6.166l4.755-17.664c0.048-0.182-0.061-0.368-0.241-0.417
		c-0.03-0.008-0.06-0.011-0.09-0.011h-6.419l-4.964,18.088h-5.417l4.803-17.656c0.05-0.182-0.056-0.37-0.236-0.42
		c-0.031-0.009-0.063-0.013-0.095-0.013h-6.287c0,0-4.664,16.799-5.387,19.352c-2.622,9.234-8.461,5.351-11.661,4.563
		c4.898-2.957,8.563-6.565,10.361-11.686c1.444-4.114,0.924-8.619-2.05-11.222c-2.682-2.255-6.23-3.195-9.678-2.562
		c-3.744,0.549-7.076,2.667-9.162,5.825l3.665,4.555c0.102,0.125,0.285,0.144,0.411,0.042c0.032-0.026,0.058-0.058,0.076-0.094
		c0.823-1.772,2.276-3.174,4.075-3.934c1.88-0.636,3.938-0.586,5.326,0.756c1.351,1.306,1.458,4.197-0.055,6.999
		c-2.55,4.71-9.708,9.507-15.614,11.663l2.685,6.349c0.063,0.148,0.236,0.216,0.385,0.152c0.02-0.009,0.038-0.019,0.056-0.031
		c1.769-1.18,3.883-1.732,6.004-1.567c4.125,0.345,5.058,1.604,8.862,2.059c5.609,0.671,9.851-2.439,11.613-7.5l5.751,0.034
		l-3.026,10.985c-0.05,0.182,0.056,0.369,0.236,0.421c0.031,0.007,0.063,0.011,0.094,0.011h6.609l3.07-11.381l6.648,0.037
		l1.396-5.313c0.048-0.182-0.062-0.368-0.244-0.415c-0.028-0.008-0.057-0.012-0.086-0.012"/>
	<path fill="#060000" d="M73.322,22.593c-3.251-1.583-5.499-3.031-5.231-5.045c0.18-1.355,1.847-2.354,4.371-2.125
		c1.585,0.189,3.063,0.901,4.196,2.024c0.779,0.709,1.452,1.525,2.002,2.423c0.084,0.138,0.265,0.182,0.401,0.097
		c0.02-0.011,0.037-0.025,0.054-0.041l4.63-4.575c-2.579-3.955-7.031-6.281-11.751-6.138c-4.023-0.09-8.503,1.258-10.441,5.438
		c-1.364,2.944-0.813,6.419,1.394,8.798c1.765,1.892,3.888,3.415,6.246,4.481c3.61,1.746,5.187,3.056,4.929,4.913
		c-0.379,2.731-3.161,3.534-5.563,3.22c-3.64-0.476-6.06-2.516-5.66-6.209l-6.955-1.878c-0.156-0.041-0.317,0.052-0.358,0.208
		c-0.003,0.01-0.005,0.021-0.007,0.033c-0.171,0.891-0.502,1.744-0.976,2.517c-2.188,3.722-6.484,5.658-10.721,4.832
		c-5.691-1.196-6.771-6.866-4.861-13.006c1.914-6.155,8.855-8.826,11.328-7.109c1.843,1.278,1.223,4.116-0.603,6.085
		c-1.854,2.002-5.352,3.154-8.978,3.22c-0.193,0.005-0.345,0.166-0.34,0.358c0.001,0.066,0.022,0.13,0.059,0.185l2.928,4.333
		c7.729,0.028,14.306-5.294,15.139-10.123c0.768-4.452-1.302-8.228-5.66-9.661c-3.065-1.011-7.281-0.59-10.653,0.73
		c-4.841,1.939-8.595,5.896-10.278,10.832c-2.077,6.332-1.406,11.756,1.448,15.484c2.529,3.33,6.471,5.285,10.653,5.281
		c5.24,0.216,10.375-1.605,13.609-5.407c1.351,2.342,5.577,5.16,10.796,5.4c8.146,0.377,12.972-4.063,13.458-9.271
		c0.43-4.614-3.202-7.68-8.588-10.304"/>
	<path fill="#0080FF" d="M14.91,9.476c2.029,0,2.816-1.536,3.333-3.949c0.501-2.348,0.39-3.948-1.644-3.948s-2.83,1.601-3.333,3.948
		C12.751,7.939,12.88,9.476,14.91,9.476"/>
	<path fill="#0080FF" d="M22.682,9.476c2.028,0,2.816-1.536,3.333-3.949c0.502-2.348,0.39-3.948-1.644-3.948
		c-2.034,0-2.83,1.601-3.333,3.948C20.522,7.939,20.648,9.476,22.682,9.476"/>
</g>
</svg>
